<?xml version="1.0" encoding="UTF-8"?>
<svg id="Capa_2" data-name="Capa 2" xmlns="http://www.w3.org/2000/svg" viewBox="0 0 974.731 103.273">
  <defs>
    <style>
      .cls-1 {
        fill: #0b0e16;
        stroke-width: 0px;
      }
    </style>
  </defs>
  <g id="Capa_1-2" data-name="Capa 1">
    <g>
      <g>
        <path class="cls-1" d="m170.478,2.095l-20.793,56.455L129.008,2.095h-12.081l-14.288,79.107h13.824l6.04-36.823c.929-5.187,1.685-10.318,2.265-15.392.16-1.392.303-2.789.436-4.19.455,1.673.91,3.288,1.365,4.828,1.394,4.725,2.98,9.603,4.762,14.637l13.126,35.778h10.455l13.125-35.778c1.781-4.955,3.37-9.816,4.763-14.579.463-1.58.925-3.251,1.387-4.963.143,1.427.297,2.85.471,4.267.62,5.073,1.354,10.204,2.207,15.392l6.041,36.823h13.94L182.443,2.095h-11.965Z"/>
        <polygon class="cls-1" points="226.657 57.965 211.752 24.515 197.812 24.515 219.686 73.562 206.408 103.273 220.348 103.273 255.545 24.515 241.606 24.515 226.657 57.965"/>
        <path class="cls-1" d="m308.979,51.291c4.181-2.207,7.452-5.286,9.815-9.235,2.362-3.95,3.544-8.48,3.544-13.592s-1.182-9.641-3.544-13.591c-2.362-3.95-5.634-7.066-9.815-9.352-4.182-2.283-9.023-3.427-14.521-3.427h-29.156v79.107h13.475v-26.601h15.043l14.578,26.601h14.752l-15.932-29.071c.598-.261,1.187-.538,1.761-.841Zm-30.203-36.417h13.94c4.801,0,8.614,1.144,11.442,3.427,2.826,2.285,4.24,5.674,4.24,10.164,0,4.182-1.414,7.454-4.24,9.816-2.828,2.363-6.641,3.543-11.442,3.543h-13.94V14.874Z"/>
        <path class="cls-1" d="m367.31,25.967c-3.293-1.819-7.454-2.729-12.488-2.729-3.562,0-7.144.426-10.744,1.278-3.602.853-7.028,2.091-10.281,3.717l4.066,9.99c2.788-1.316,5.498-2.225,8.131-2.729,2.632-.504,5.034-.755,7.203-.755,3.794,0,6.486.929,8.073,2.787,1.586,1.859,2.381,3.95,2.381,6.273v4.206c-.06-.045-.114-.096-.174-.14-3.369-2.478-7.803-3.718-13.301-3.718-4.182,0-7.861.833-11.035,2.498-3.176,1.666-5.634,3.931-7.376,6.795-1.743,2.866-2.614,6.235-2.614,10.106,0,3.95.852,7.358,2.555,10.222,1.703,2.866,4.124,5.093,7.261,6.679,3.137,1.586,6.872,2.381,11.21,2.381,5.112,0,9.427-1.201,12.952-3.601.908-.618,1.739-1.314,2.5-2.081l1.159,4.056h10.339v-37.172c0-4.026-.813-7.588-2.44-10.686-1.626-3.097-4.086-5.556-7.376-7.377Zm-6.505,43.619c-1.898,1.472-4.396,2.207-7.493,2.207s-5.595-.735-7.493-2.207c-1.898-1.469-2.845-3.485-2.845-6.04,0-2.71.947-4.781,2.845-6.215,1.897-1.432,4.395-2.149,7.493-2.149s5.594.717,7.493,2.149c1.896,1.434,2.845,3.505,2.845,6.215,0,2.555-.949,4.571-2.845,6.04Z"/>
        <path class="cls-1" d="m415.457,36.247c3.02,0,5.651.775,7.899,2.323,2.245,1.55,3.95,3.796,5.112,6.737l12.545-5.459c-2.014-5.034-5.286-9.061-9.816-12.081-4.53-3.02-9.7-4.53-15.508-4.53s-10.861,1.259-15.159,3.775c-4.297,2.517-7.628,6.003-9.99,10.454-2.362,4.455-3.543,9.584-3.543,15.392s1.18,10.919,3.543,15.334c2.362,4.414,5.693,7.899,9.99,10.455,4.298,2.555,9.352,3.833,15.159,3.833,5.73,0,10.861-1.528,15.392-4.588,4.53-3.058,7.841-7.104,9.932-12.139l-12.545-5.344c-1.162,2.944-2.866,5.189-5.112,6.737-2.247,1.55-4.878,2.323-7.899,2.323-4.182,0-7.686-1.469-10.513-4.414-2.828-2.942-4.239-7.008-4.239-12.197,0-5.265,1.411-9.351,4.239-12.255,2.827-2.903,6.331-4.356,10.513-4.356Z"/>
        <polygon class="cls-1" points="499.094 24.515 483.529 24.515 462.968 46.855 462.968 2.095 449.725 2.095 449.725 81.202 462.968 81.202 462.968 56.885 483.529 81.202 499.443 81.202 474.642 51.604 499.094 24.515"/>
        <path class="cls-1" d="m542.557,27.013c-4.221-2.516-9.159-3.775-14.81-3.775-5.577,0-10.455,1.239-14.637,3.717-4.182,2.48-7.454,5.945-9.816,10.396-2.362,4.455-3.543,9.661-3.543,15.624,0,5.887,1.18,11.035,3.543,15.45,2.362,4.414,5.634,7.842,9.816,10.281,4.182,2.439,9.06,3.659,14.637,3.659,6.272,0,11.538-1.238,15.798-3.717,4.258-2.478,7.667-6.117,10.222-10.919l-9.642-5.808c-1.704,2.633-3.737,4.84-6.098,6.621-2.363,1.782-5.674,2.671-9.932,2.671-4.725,0-8.422-1.412-11.093-4.24-2.429-2.569-3.741-5.962-3.962-10.164h42.586c.076-.541.134-1.162.174-1.859.038-.696.058-1.394.058-2.091,0-5.808-1.162-10.937-3.485-15.392-2.323-4.452-5.596-7.937-9.816-10.454Zm-14.694,6.911c5.033,0,8.788,1.704,11.268,5.112,1.447,1.99,2.458,4.32,3.061,6.969h-28.936c.507-3.118,1.754-5.733,3.746-7.841,2.671-2.826,6.291-4.24,10.861-4.24Z"/>
        <path class="cls-1" d="m584.316,11.389h-10.919l-2.555,13.126h-8.712v12.313h8.712v26.833c0,6.429,1.568,11.134,4.704,14.114,3.137,2.982,7.414,4.472,12.836,4.472,1.78,0,3.311-.116,4.588-.348,1.278-.233,2.497-.543,3.659-.929v-12.546c-.775.233-1.666.427-2.671.581-1.008.156-2.131.232-3.369.232-1.859,0-3.369-.541-4.53-1.626-1.163-1.084-1.743-2.788-1.743-5.112v-25.672h12.313v-12.313h-12.313v-13.126Z"/>
        <path class="cls-1" d="m653.956,5.639c-4.144-2.362-9.043-3.544-14.694-3.544h-28.228v79.107h13.475v-24.278h14.753c5.576,0,10.454-1.162,14.636-3.485,4.182-2.323,7.435-5.556,9.758-9.7,2.323-4.142,3.485-8.846,3.485-14.114,0-5.344-1.162-10.086-3.485-14.23-2.323-4.142-5.558-7.394-9.7-9.757Zm-4.995,34.674c-2.828,2.555-6.641,3.833-11.442,3.833h-13.01V14.874h13.126c4.801,0,8.596,1.239,11.384,3.717,2.788,2.48,4.182,6.157,4.182,11.035,0,4.571-1.413,8.132-4.24,10.687Z"/>
        <path class="cls-1" d="m711.803,25.967c-3.293-1.819-7.454-2.729-12.488-2.729-3.562,0-7.144.426-10.744,1.278-3.602.853-7.028,2.091-10.281,3.717l4.066,9.99c2.788-1.316,5.498-2.225,8.131-2.729,2.632-.504,5.034-.755,7.203-.755,3.794,0,6.486.929,8.073,2.787,1.586,1.859,2.381,3.95,2.381,6.273v4.206c-.06-.045-.114-.096-.174-.14-3.369-2.478-7.803-3.718-13.301-3.718-4.182,0-7.861.833-11.035,2.498-3.176,1.666-5.634,3.931-7.376,6.795-1.743,2.866-2.614,6.235-2.614,10.106,0,3.95.852,7.358,2.555,10.222,1.703,2.866,4.124,5.093,7.261,6.679,3.137,1.586,6.872,2.381,11.21,2.381,5.112,0,9.427-1.201,12.952-3.601.908-.618,1.739-1.314,2.5-2.081l1.159,4.056h10.339v-37.172c0-4.026-.813-7.588-2.44-10.686-1.626-3.097-4.086-5.556-7.376-7.377Zm-6.505,43.619c-1.898,1.472-4.396,2.207-7.493,2.207s-5.595-.735-7.493-2.207c-1.898-1.469-2.845-3.485-2.845-6.04,0-2.71.947-4.781,2.845-6.215,1.897-1.432,4.395-2.149,7.493-2.149s5.594.717,7.493,2.149c1.896,1.434,2.845,3.505,2.845,6.215,0,2.555-.949,4.571-2.845,6.04Z"/>
        <path class="cls-1" d="m759.989,23.238c-2.402,0-4.745.58-7.027,1.742-2.286,1.162-4.28,2.555-5.983,4.182-.575.548-1.076,1.072-1.545,1.585l-1.359-6.232h-10.106v56.687h13.476v-39.604c.857-1.097,1.859-2.016,3.02-2.737,2.556-1.586,6.389-2.381,11.501-2.381h3.717v-12.198c-.543-.387-1.336-.657-2.381-.812-1.046-.154-2.149-.232-3.311-.232Z"/>
        <path class="cls-1" d="m793.328,11.389h-10.919l-2.555,13.126h-8.712v12.313h8.712v26.833c0,6.429,1.568,11.134,4.704,14.114,3.137,2.982,7.414,4.472,12.836,4.472,1.78,0,3.311-.116,4.588-.348,1.278-.233,2.497-.543,3.659-.929v-12.546c-.775.233-1.666.427-2.671.581-1.008.156-2.131.232-3.369.232-1.859,0-3.369-.541-4.53-1.626-1.163-1.084-1.743-2.788-1.743-5.112v-25.672h12.313v-12.313h-12.313v-13.126Z"/>
        <path class="cls-1" d="m866.161,30.613c-1.162-2.283-2.904-4.084-5.228-5.402-2.323-1.316-5.5-1.974-9.526-1.974-3.098,0-6.098.484-9.002,1.452-2.903.969-5.634,2.323-8.189,4.066-1.372.935-2.684,1.974-3.945,3.1l-1.98-7.34h-10.106v56.687h13.476v-37.296c.794-.928,1.679-1.8,2.671-2.606,1.859-1.51,3.929-2.71,6.215-3.601,2.283-.89,4.51-1.337,6.679-1.337,2.323,0,4.277.639,5.866,1.917,1.586,1.278,2.381,3.815,2.381,7.609v35.313h13.475v-34.152c0-3.02-.174-5.943-.522-8.77-.349-2.826-1.104-5.381-2.265-7.667Z"/>
        <path class="cls-1" d="m919.613,27.013c-4.221-2.516-9.159-3.775-14.81-3.775-5.577,0-10.455,1.239-14.637,3.717-4.182,2.48-7.454,5.945-9.816,10.396-2.362,4.455-3.543,9.661-3.543,15.624,0,5.887,1.18,11.035,3.543,15.45,2.362,4.414,5.634,7.842,9.816,10.281,4.182,2.439,9.06,3.659,14.637,3.659,6.272,0,11.538-1.238,15.798-3.717,4.258-2.478,7.667-6.117,10.222-10.919l-9.642-5.808c-1.704,2.633-3.737,4.84-6.098,6.621-2.363,1.782-5.674,2.671-9.932,2.671-4.725,0-8.422-1.412-11.093-4.24-2.429-2.569-3.741-5.962-3.962-10.164h42.586c.076-.541.134-1.162.174-1.859.038-.696.058-1.394.058-2.091,0-5.808-1.162-10.937-3.485-15.392-2.323-4.452-5.596-7.937-9.816-10.454Zm-14.694,6.911c5.033,0,8.788,1.704,11.268,5.112,1.447,1.99,2.458,4.32,3.06,6.969h-28.936c.507-3.118,1.754-5.733,3.746-7.841,2.671-2.826,6.291-4.24,10.861-4.24Z"/>
        <path class="cls-1" d="m972.35,23.47c-1.046-.154-2.149-.232-3.311-.232-2.402,0-4.745.58-7.027,1.742-2.286,1.162-4.28,2.555-5.983,4.182-.574.548-1.076,1.072-1.545,1.585l-1.359-6.232h-10.106v56.687h13.476v-39.604c.858-1.097,1.858-2.016,3.02-2.737,2.556-1.586,6.389-2.381,11.501-2.381h3.717v-12.198c-.543-.387-1.336-.657-2.381-.812Z"/>
      </g>
      <g>
        <rect class="cls-1" x="72.496" y="13.143" height=".433" transform="translate(16.72 61.56) rotate(-51.275)"/>
        <path class="cls-1" d="m41.161,17.828c5.396,0,10.816-2.278,16.109-6.772,2.258-1.917,3.996-3.834,5.105-5.173-6.195-3.734-13.454-5.882-21.215-5.882s-15.016,2.147-21.21,5.88c3.106,3.743,11.072,11.948,21.212,11.948Z"/>
        <path class="cls-1" d="m10.132,14.115C3.822,21.348,0,30.807,0,41.159c0,20.628,15.174,37.711,34.969,40.696-.325-19.095-7.031-36.461-12.68-47.78-5.299-10.618-10.574-17.872-12.157-19.961Z"/>
        <path class="cls-1" d="m33.706,29.293c2.942,5.973,5.438,12.018,7.453,18.043,2.015-6.025,4.511-12.069,7.453-18.042-2.352.564-4.839.887-7.451.887s-5.102-.324-7.455-.888Z"/>
        <path class="cls-1" d="m82.319,41.159c0-10.352-3.822-19.81-10.131-27.043-1.608,2.127-6.99,9.547-12.297,20.239-5.586,11.255-12.218,28.521-12.541,47.501,19.795-2.986,34.969-20.069,34.969-40.696Z"/>
      </g>
    </g>
  </g>
</svg>