<?xml version="1.0" encoding="UTF-8"?>
<svg id="Capa_2" data-name="Capa 2" xmlns="http://www.w3.org/2000/svg" viewBox="0 0 352.531 350.549">
  <defs>
    <style>
      .cls-1 {
        fill: #0b0e16;
        stroke-width: 0px;
      }
    </style>
  </defs>
  <g id="Capa_1-2" data-name="Capa 1">
    <g>
      <rect class="cls-1" x="310.465" y="56.287" height="1.855" transform="translate(71.606 263.632) rotate(-51.275)"/>
      <path class="cls-1" d="m176.273,76.348c23.111,0,46.321-9.757,68.987-29.002,9.668-8.208,17.113-16.421,21.861-22.155C240.588,9.201,209.502,0,176.266,0s-64.307,9.196-90.834,25.18c13.301,16.029,47.417,51.169,90.842,51.169Z"/>
      <path class="cls-1" d="m43.391,60.448C16.369,91.423,0,131.932,0,176.266c0,88.338,64.984,161.497,149.756,174.284-1.391-81.774-30.11-156.147-54.302-204.618-22.695-45.472-45.282-76.539-52.063-85.484Z"/>
      <path class="cls-1" d="m144.348,125.449c12.598,25.579,23.287,51.466,31.918,77.268,8.631-25.801,19.319-51.686,31.916-77.264-10.07,2.413-20.723,3.8-31.909,3.8s-21.85-1.388-31.925-3.804Z"/>
      <path class="cls-1" d="m352.531,176.266c0-44.332-16.368-84.839-43.387-115.814-6.886,9.111-29.935,40.886-52.663,86.675-23.924,48.198-52.323,122.14-53.707,203.422,84.772-12.787,149.756-85.945,149.756-174.284Z"/>
    </g>
  </g>
</svg>